<svg width="197" height="195" viewBox="0 0 197 195" fill="none" xmlns="http://www.w3.org/2000/svg">
<rect x="14.797" y="39.256" width="139.515" height="140.81" fill="#F1D3AF"/>
<path fill-rule="evenodd" clip-rule="evenodd" d="M169.109 24.3217H0V195H169.109V24.3217ZM154.312 39.256H14.797V169.035L14.9523 169.189L35.1777 148.49L46.1566 159.418L25.9812 180.066H154.312V39.256ZM25.5573 180.058L25.5501 180.066H25.5648L25.5573 180.058Z" fill="#270100"/>
<path fill-rule="evenodd" clip-rule="evenodd" d="M98.948 140.816C93.96 149.917 84.7136 156.908 73.402 158.153C53.8684 158.962 37.7999 139.541 36.7105 122.008C35.9736 110.146 43.1155 102.976 53.4555 99.5785C49.912 95.9173 46.1206 89.9314 43.2943 85.3392C28.9843 92.4935 19.0247 104.012 19.0247 122.277C19.0247 150.33 45.5516 176.225 72.0821 176.225C91.2356 176.225 102.408 164.135 109.921 147.261C106.046 145.396 101.592 142.942 98.948 140.816Z" fill="#270100"/>
<path d="M158.305 102.653C198.468 115.241 176.65 160.044 140.548 160.044C104.447 160.044 75.3052 132.28 65.9289 123.775C50.6821 109.944 5.70743 53.7637 43.5455 23.0416C96.1806 -2.77353 74.8072 76.4844 158.305 102.653Z" fill="#2A0303"/>
<path d="M174.509 51.1299C176.136 49.291 178.987 51.4633 177.68 53.5458L146.756 102.837C146.134 103.828 144.804 104.07 143.874 103.362L136.305 97.5949C135.375 96.8864 135.241 95.5293 136.015 94.6542L174.509 51.1299Z" fill="#270100"/>
<path d="M138.917 19.827C140.954 18.4579 143.165 21.2767 141.378 22.9635L99.1175 62.8455C98.2664 63.6487 96.9182 63.5485 96.1964 62.6284L90.3039 55.1174C89.5821 54.1973 89.7946 52.8499 90.7644 52.1979L138.917 19.827Z" fill="#270100"/>
<path d="M58.7135 15.389C58.9606 19.9218 58.4186 22.1882 55.006 22.1882C51.5934 22.1882 50.3099 18.945 50.3099 14.6336C50.3099 10.3222 52.5344 7.33079 55.006 6.82715C58.2191 7.58261 58.7135 11.1081 58.7135 15.389Z" fill="#270100"/>
<path d="M49.2743 13.5712C51.8223 18.1675 52.4876 20.7713 49.3671 22.3385C46.2465 23.9056 43.4114 21.1251 41.2029 16.6453C38.9943 12.1655 39.496 8.03573 41.4982 6.37739C44.8233 5.68683 47.0813 9.12303 49.2743 13.5712Z" fill="#270100"/>
<path d="M186.716 127.802C191.931 127.698 194.529 128.179 194.481 130.917C194.432 133.654 190.685 134.616 185.728 134.526C180.771 134.437 177.364 132.59 176.82 130.597C177.734 128.036 181.795 127.713 186.716 127.802Z" fill="#270100"/>
<path d="M44.532 19.5945C48.6237 21.4207 50.3599 22.9447 48.7726 26.0766C47.1853 29.2085 43.7429 28.9174 39.9605 26.9647C36.178 25.0119 34.5883 21.6155 35.2961 19.119C37.4534 16.5123 40.7763 17.6555 44.532 19.5945Z" fill="#270100"/>
<path d="M184.988 133.051C188.876 135.281 190.495 136.912 188.825 139.558C187.155 142.205 183.831 141.467 180.248 139.163C176.664 136.859 175.267 133.536 176.058 131.35C178.258 129.263 181.43 130.763 184.988 133.051Z" fill="#270100"/>
<path d="M185.456 127.755C183.982 127.618 180.304 130.704 180.304 130.704C180.304 130.704 177.944 130.984 178.319 126.877C179.568 122.494 184.548 119.101 187.819 120.476C189.043 121.019 187.104 125.98 185.456 127.755Z" fill="#2A0303"/>
<path d="M142.337 105.377C186.305 114.978 174.679 149.327 145.085 149.327C113.342 149.327 81.2463 122.445 73.0022 114.978C59.5964 102.835 19.7963 51.007 45.8708 31.5754C84.5544 7.04046 63.9126 69.7478 142.337 105.377Z" fill="#BF452D"/>
<path d="M80.7495 47.3632L86.4569 56.3238V56.3238C79.1392 57.1599 72.2105 60.0609 66.48 64.6879L65.0182 65.8681C64.9071 65.9579 64.7448 65.8578 64.7751 65.7182V65.7182C66.5666 57.4524 72.3792 50.6334 80.257 47.5556L80.7495 47.3632Z" fill="#280105"/>
<path d="M135.104 98.8885L143.572 105.247V105.247C137.014 108.63 131.54 113.81 127.788 120.184L126.836 121.8C126.763 121.923 126.577 121.887 126.557 121.746V121.746C125.349 113.373 128.404 104.93 134.691 99.2604L135.104 98.8885Z" fill="#280105"/>
<path d="M105.128 76.2904L111.964 84.4063V84.4063C104.821 86.2162 98.3356 90.0208 93.2643 95.3759L91.9717 96.7407C91.8734 96.8446 91.6995 96.7672 91.7111 96.6247V96.6247C92.3987 88.192 97.2611 80.6546 104.662 76.5489L105.128 76.2904Z" fill="#280105"/>
</svg>
